<!DOCTYPE svg PUBLIC "-//W3C//DTD SVG 1.1//EN" "http://www.w3.org/Graphics/SVG/1.1/DTD/svg11.dtd">
<!-- Uploaded to: SVG Repo, www.svgrepo.com, Transformed by: SVG Repo Mixer Tools -->
<svg width="800px" height="800px" viewBox="-2.88 -2.88 29.76 29.76" fill="none" xmlns="http://www.w3.org/2000/svg">
<g id="SVGRepo_bgCarrier" stroke-width="0" transform="translate(0.6000000000000014,0.6000000000000014), scale(0.95)">
<rect x="-2.88" y="-2.88" width="29.76" height="29.76" rx="14.88" fill="#1e2937" strokewidth="0"/>
</g>
<g id="SVGRepo_tracerCarrier" stroke-linecap="round" stroke-linejoin="round" stroke="#CCCCCC" stroke-width="0.288"/>
<g id="SVGRepo_iconCarrier"> <path d="M12 21C16.4183 21 20 17.6439 20 13.504C20 9.76257 17.9654 6.83811 16.562 5.44436C16.3017 5.18584 15.8683 5.30006 15.7212 5.63288C14.9742 7.3229 13.4178 9.75607 11.4286 9.75607C10.1975 9.92086 8.31688 8.86844 9.83483 3.64868C9.97151 3.17868 9.46972 2.80113 9.08645 3.11539C6.9046 4.90436 4 8.51143 4 13.504C4 17.6439 7.58172 21 12 21Z" stroke="#22c55f" stroke-width="1.536"/> </g>
</svg>